<?xml version="1.0" encoding="utf-8"?><svg xml:space="preserve" viewBox="0 0 100 100" y="0" x="0" xmlns="http://www.w3.org/2000/svg" id="圖層_1" version="1.1" width="200px" height="200px" xmlns:xlink="http://www.w3.org/1999/xlink" style="width:100%;height:100%;background-size:initial;background-repeat-y:initial;background-repeat-x:initial;background-position-y:initial;background-position-x:initial;background-origin:initial;background-image:initial;background-color:rgba(255, 255, 255, 0.918);background-clip:initial;background-attachment:initial;animation-play-state:paused" ><g class="ldl-scale" style="transform-origin:50% 50%;transform:rotate(0deg) scale(0.8, 0.8);animation-play-state:paused" ><path fill="#66503a" d="M20.145 65.44C32.582 89.49 54.101 94.311 68.93 86.642c.335-.173.677-.361 1.027-.565-.032-.139-.057-.288-.09-.426-.075-.31-.16-.61-.241-.913a35.008 35.008 0 0 0-.816-2.64 30.842 30.842 0 0 0-.647-1.658c-.106-.251-.205-.508-.316-.754a29.667 29.667 0 0 0-1.12-2.243c-3.214-5.74-8.302-10.154-13.688-14.828-4.1-3.557-8.338-7.235-11.837-11.642a48.097 48.097 0 0 1-2.382-3.298c-.092-.138-.188-.272-.278-.411a49.348 49.348 0 0 1-1.989-3.359c-.107-.197-.214-.393-.318-.591a51.752 51.752 0 0 1-1.694-3.549c-.089-.206-.175-.416-.262-.625a56.351 56.351 0 0 1-1.455-3.868c-.051-.153-.096-.311-.146-.465a63.24 63.24 0 0 1-1.234-4.29l-.023-.084a73.917 73.917 0 0 1-.965-4.589c-.037-.203-.077-.402-.113-.607a86.805 86.805 0 0 1-.667-4.68c-.032-.275-.064-.549-.094-.827a103.402 103.402 0 0 1-.412-4.943c-.007-.117-.022-.224-.028-.341-13.63 8.376-20.892 27.991-8.997 50.994z" style="fill:rgb(119, 64, 35);animation-play-state:paused" ></path>
<path fill="#66503a" d="M79.826 34.577C68.406 12.495 50.054 7.069 36.037 11.348l.005.195c.059 1.721.159 3.382.291 5 .018.225.034.453.054.676.14 1.581.319 3.109.53 4.594.032.227.064.456.098.681a71.385 71.385 0 0 0 .916 4.899 60.078 60.078 0 0 0 1.021 3.936c.059.199.121.395.182.592a51.667 51.667 0 0 0 1.285 3.676c.067.169.138.334.206.501a45.854 45.854 0 0 0 1.571 3.46c.065.127.134.249.199.375a41.977 41.977 0 0 0 1.892 3.29c.046.072.097.141.144.214a41.243 41.243 0 0 0 2.269 3.172c3.094 3.897 6.904 7.204 10.939 10.705 5.604 4.863 11.399 9.892 15.212 16.701a36.247 36.247 0 0 1 1.629 3.329c.16.37.297.76.446 1.137.316.799.618 1.611.887 2.45.062.194.145.37.205.566 9.823-9.531 14.313-26.606 3.808-46.92z" style="fill:rgb(119, 64, 35);animation-play-state:paused" ></path>
<metadata xmlns:d="https://loading.io/stock/" style="animation-play-state:paused" ><d:name style="animation-play-state:paused" >coffee bean</d:name>


<d:tags style="animation-play-state:paused" >coffee bean,roasted,cafe,caffeine,seed,nut</d:tags>


<d:license style="animation-play-state:paused" >by</d:license>


<d:slug style="animation-play-state:paused" >49i4jo</d:slug></metadata></g><!-- generated by https://loading.io/ --></svg>